<?xml version="1.0" encoding="UTF-8"?>
<svg version="1.1" xmlns="http://www.w3.org/2000/svg" width="1024" height="1024">
<path d="M0 0 C337.92 0 675.84 0 1024 0 C1024 337.92 1024 675.84 1024 1024 C686.08 1024 348.16 1024 0 1024 C0 686.08 0 348.16 0 0 Z " fill="#11151A" transform="translate(0,0)"/>
<path d="M0 0 C18.03163689 4.97424466 34.20854935 17.67566015 47.47607422 30.52734375 C49.06599691 32.06377657 50.67545719 33.57807211 52.28515625 35.09375 C75.4039505 57.17535737 91.30691739 88.19206447 92.19140625 120.4453125 C92.80655297 159.91338905 78.47883808 192.78703738 58.125 226 C48.94385007 241.04571703 44.43734933 256.40242261 46 274 C47.56065964 280.30766606 51.67283668 284.47418675 57 288 C64.37338046 292.39088949 73.56036814 291.9193744 81.7734375 290.53125 C95.11803524 286.99514208 105.38972109 278.10340116 112.25 266.3125 C121.53215308 249.58783855 123.34906847 233.71394846 123 215 C156.4208027 227.62692372 185.65037967 269.80133776 200 301 C202.88950693 307.58225365 205.49502205 314.26344079 208 321 C208.4125 322.08410156 208.825 323.16820312 209.25 324.28515625 C223.91646482 366.85227875 217.44331198 418.88561968 198.26025391 458.82055664 C189.24653742 477.15077033 178.08769988 493.18362599 164 508 C163.49629883 508.53093262 162.99259766 509.06186523 162.47363281 509.60888672 C154.77896725 517.66487887 146.81803437 525.01137065 137.85253906 531.63037109 C136.59555499 532.55969116 135.34506706 533.49785005 134.10058594 534.44384766 C108.34464759 553.99594192 79.52396051 564.82565187 48 571 C47.25621094 571.14695312 46.51242187 571.29390625 45.74609375 571.4453125 C24.27507478 575.45778921 1.39269669 573.47243772 -20 570 C-20.71397949 569.88785156 -21.42795898 569.77570312 -22.16357422 569.66015625 C-48.51670646 565.40053298 -74.97072981 555.10221922 -97 540 C-98.07507813 539.27296875 -99.15015625 538.5459375 -100.2578125 537.796875 C-118.36444998 525.34344108 -134.54909346 510.35834732 -147.69726562 492.74267578 C-148.9351735 491.0867188 -150.19300348 489.44766486 -151.453125 487.80859375 C-183.7905772 444.94191064 -198.43520072 392.13423977 -191 339 C-189.07662104 326.67005564 -186.1019499 314.7769536 -182 303 C-181.67974854 302.05858154 -181.67974854 302.05858154 -181.35302734 301.09814453 C-173.14781923 277.16884082 -160.76199512 255.45400765 -146 235 C-145.29488281 234.01902344 -144.58976562 233.03804687 -143.86328125 232.02734375 C-138.36863981 224.54003162 -132.41156585 217.51656349 -126.30224609 210.53173828 C-125.07687172 209.09041867 -123.92035648 207.59135828 -122.76953125 206.08984375 C-122.18558594 205.40019531 -121.60164063 204.71054687 -121 204 C-120.34 204 -119.68 204 -119 204 C-118.7321167 203.40541992 -118.4642334 202.81083984 -118.18823242 202.19824219 C-116.98789327 199.97760243 -115.79297002 198.5756393 -113.98828125 196.828125 C-113.39466797 196.24546875 -112.80105469 195.6628125 -112.18945312 195.0625 C-111.57005859 194.464375 -110.95066406 193.86625 -110.3125 193.25 C-105.93173603 188.99628289 -101.78506472 184.65532538 -97.79711914 180.03076172 C-94.69491751 176.52524437 -91.38101522 173.23681455 -88.0625 169.9375 C-87.39798828 169.26912109 -86.73347656 168.60074219 -86.04882812 167.91210938 C-82.15533767 164.02617176 -78.15298272 160.33295284 -73.98901367 156.73950195 C-70.61742194 153.79085937 -67.3779154 150.70322475 -64.125 147.625 C-59.72400518 143.47076147 -55.30799668 139.35771555 -50.75 135.375 C-31.83973682 118.42861675 -17.7440562 97.89323618 -7 75 C-6.45214844 73.865625 -5.90429688 72.73125 -5.33984375 71.5625 C-1.75106616 63.48545581 0.17305484 55.40038746 1.875 46.75 C2.09051514 45.66090332 2.30603027 44.57180664 2.52807617 43.44970703 C5.25324244 28.57592347 3.52818377 14.61676134 0 0 Z " fill="#EA241A" transform="translate(498,217)"/>
<path d="M0 0 C2.9375 2.6875 2.9375 2.6875 5 6 C5.474375 6.7425 5.94875 7.485 6.4375 8.25 C7.85395119 15.17487246 4.44632416 23.44015544 2.64453125 30.1796875 C2.41980637 31.03136505 2.19508148 31.8830426 1.96354675 32.76052856 C1.24933958 35.46610468 0.5312801 38.1706355 -0.1875 40.875 C-3.92899564 54.9756384 -7.54590748 69.10223387 -11.07006836 83.25878906 C-14.15410027 95.64457034 -17.27850632 108.02020756 -20.40759373 120.39467239 C-21.40443439 124.33693219 -22.39991168 128.27952577 -23.39233398 132.22290039 C-24.37650121 136.13334196 -25.36400647 140.04292696 -26.35378456 143.95195198 C-26.72285484 145.41181679 -27.09080883 146.87196437 -27.45750999 148.33242607 C-29.20810537 155.30132653 -31.01159812 162.25541808 -33.0012207 169.16040039 C-33.2885054 170.16333633 -33.5757901 171.16627228 -33.8717804 172.19960022 C-35.79727541 176.97894974 -39.08995429 180.69211738 -43 184 C-47.60964322 185.53654774 -52.18603794 185.53408275 -57 185 C-60.16620095 182.81381363 -60.7896387 181.63108389 -62 178 C-62.56652714 171.27361429 -60.75836334 165.22287242 -59.0625 158.75 C-58.59541626 156.9251709 -58.59541626 156.9251709 -58.11889648 155.06347656 C-57.26719837 151.73617062 -56.4053627 148.41156872 -55.54150391 145.08740234 C-54.62635854 141.55967788 -53.71962472 138.02979386 -52.8125 134.5 C-51.68208049 130.10183971 -50.5509806 125.70386673 -49.41503906 121.30712891 C-47.53196624 114.01179579 -45.66920434 106.7123187 -43.859375 99.3984375 C-43.68791962 98.70571747 -43.51646423 98.01299744 -43.33981323 97.29928589 C-42.99885727 95.92115349 -42.65794493 94.54301029 -42.31707764 93.16485596 C-42.06731171 92.15512726 -42.06731171 92.15512726 -41.8125 91.125 C-41.64647278 90.45362 -41.48044556 89.78223999 -41.30938721 89.09051514 C-39.13608635 80.32092013 -36.79084664 71.62537833 -34.22241211 62.96337891 C-31.61130328 53.98286802 -29.57336397 44.86390638 -27.53491211 35.73974609 C-21.70979842 9.96426526 -21.70979842 9.96426526 -12.1875 1.5 C-8.01420602 -0.46390305 -4.52574887 -1.11056199 0 0 Z " fill="#11151A" transform="translate(542,545)"/>
<path d="M0 0 C3.82602597 4.84629956 4.69651466 9.93037225 4 16 C-0.47249782 25.02751405 -8.15392889 32.62052552 -15.75 39.07421875 C-22.99658398 45.27659011 -29.92754009 51.8361971 -36.6875 58.5625 C-37.20473633 59.07514404 -37.72197266 59.58778809 -38.25488281 60.1159668 C-41.06072403 62.93366502 -42.74815764 64.67782762 -43.5 68.625 C-42.33644897 76.47896947 -33.29430975 82.74009447 -27.6875 87.9375 C-26.94056885 88.63625244 -26.1936377 89.33500488 -25.42407227 90.05493164 C-21.4758525 93.73865279 -17.48705885 97.3658394 -13.4375 100.9375 C1.38897977 114.19530785 1.38897977 114.19530785 2.375 123.5625 C1.95857906 127.37969196 1.45825789 129.06595026 -1 132 C-4.5668893 134.53797893 -6.99369222 135.7871272 -11.25 136.6875 C-21.74518619 134.76338253 -29.77040413 125.83093029 -36.99609375 118.53515625 C-38.00154117 117.53241289 -39.00758089 116.53026311 -40.01417542 115.52867126 C-42.10380639 113.44488429 -44.18616694 111.35417306 -46.26342773 109.25805664 C-48.91141855 106.5871899 -51.57709374 103.9348114 -54.24844265 101.28733158 C-56.32248519 99.22780993 -58.38682536 97.15877364 -60.44844246 95.0868206 C-61.42741485 94.1052029 -62.40930341 93.12648365 -63.3942852 92.15089607 C-69.9645062 85.62969967 -76.54677908 78.97826603 -77.2734375 69.1875 C-76.139986 60.11988804 -68.94496325 53.50254972 -62.65234375 47.54296875 C-60.49533789 45.47491159 -58.54380378 43.40746734 -56.625 41.125 C-52.91451121 36.76920881 -48.83479102 32.80844269 -44.76928711 28.78881836 C-41.21475423 25.25897331 -37.8546258 21.6324801 -34.59375 17.828125 C-26.6586197 8.72606378 -13.12082633 -6.17450651 0 0 Z " fill="#11151A" transform="translate(467,570)"/>
<path d="M0 0 C8.11626207 5.05541517 14.91055761 12.3988969 21.10546875 19.61328125 C25.54290983 24.70739989 30.32702044 29.43558671 35.125 34.1875 C36.00542969 35.06341797 36.88585937 35.93933594 37.79296875 36.84179688 C40.72638516 39.75972768 43.66228882 42.67513183 46.60205078 45.58666992 C59.88030673 58.78190533 59.88030673 58.78190533 60.5625 67.25 C60.00344003 77.69994434 51.22934395 85.2440117 44.125 92 C36.87340179 98.95805526 30.16747626 106.02716945 24.40283203 114.2890625 C23.93989746 114.85367188 23.47696289 115.41828125 23 116 C22.34 116 21.68 116 21 116 C20.7525 116.57234375 20.505 117.1446875 20.25 117.734375 C18.80683801 120.35010611 17.11783778 122.14773456 15 124.25 C13.948125 125.30960938 13.948125 125.30960938 12.875 126.390625 C11 128 11 128 9 128 C9 128.66 9 129.32 9 130 C3.23761226 133.6917425 -1.99793936 136.46152942 -9 136 C-13.30696235 134.48458732 -15.58880843 132.83317634 -18 129 C-18.96502483 124.6686095 -18.76693616 120.62347999 -16.86328125 116.59375 C-15.3540773 114.28042951 -13.74454714 112.14067138 -12 110 C-11.28070312 109.07380859 -11.28070312 109.07380859 -10.546875 108.12890625 C-7.51695598 104.3914512 -4.13735951 101.26849746 -0.48046875 98.15625 C2.807313 95.2982098 5.99677193 92.34054909 9.1875 89.375 C9.78175781 88.82440918 10.37601563 88.27381836 10.98828125 87.70654297 C14.39596161 84.53667438 17.71151142 81.29411955 21 78 C21.59425781 77.47535156 22.18851563 76.95070313 22.80078125 76.41015625 C25.43205279 74.06444907 26.83834961 72.57199368 27.8125 69.125 C26.55637091 64.29373426 23.45694436 61.48405765 20 58 C19.42507813 57.39929688 18.85015625 56.79859375 18.2578125 56.1796875 C15.28007764 53.11961896 12.18455743 50.27172773 8.9375 47.5 C5.74663129 44.75264972 3.02873477 41.84813997 0.3515625 38.60546875 C-1.10370509 36.83034977 -1.10370509 36.83034977 -3.3125 34.6875 C-18.88 19.12 -18.88 19.12 -19.0625 9.8125 C-17.45785627 5.56491365 -15.00607203 2.22251424 -11.08984375 -0.1640625 C-7.23351928 -1.70659229 -3.90867062 -1.24172165 0 0 Z " fill="#11151A" transform="translate(578,571)"/>
<path d="M0 0 C0 0.66 0 1.32 0 2 C0.556875 1.814375 1.11375 1.62875 1.6875 1.4375 C4.41721945 0.92106659 6.31135581 1.37954365 9 2 C9.99 2 10.98 2 12 2 C12 2.66 12 3.32 12 4 C13.258125 3.814375 14.51625 3.62875 15.8125 3.4375 C18.82744268 2.99267239 20.00468461 3.00156154 23 4 C24.52021517 4.0433573 26.04219473 4.04007394 27.5625 4 C31.77847114 3.88923557 31.77847114 3.88923557 34 5 C40.76207022 5.32155299 47.31638654 5.05530739 54 4 C56.43515609 3.74713955 58.87308728 3.52032015 61.3125 3.3125 C62.52550781 3.20550781 63.73851562 3.09851563 64.98828125 2.98828125 C68 3 68 3 70 5 C44.65028623 9.40864587 17.98378591 7.86953091 -7 2 C-7 1.67 -7 1.34 -7 1 C-2.25 0 -2.25 0 0 0 Z " fill="#E8171D" transform="translate(476,783)"/>
<path d="M0 0 C0.99 0.33 1.98 0.66 3 1 C1.37660195 2.70884005 -0.29319053 4.37446717 -2 6 C-2.66 6 -3.32 6 -4 6 C-4.33 6.99 -4.66 7.98 -5 9 C-5.639375 9.144375 -6.27875 9.28875 -6.9375 9.4375 C-7.9584375 9.7159375 -7.9584375 9.7159375 -9 10 C-9.25007813 10.556875 -9.50015625 11.11375 -9.7578125 11.6875 C-11.51988959 14.96784477 -14.18528953 17.12683137 -16.9375 19.5625 C-23.16648726 25.18303383 -29.1208598 31.0148232 -35 37 C-35.495 35.515 -35.495 35.515 -36 34 C-22.00259528 19.8256618 -22.00259528 19.8256618 -16.21875 14.9296875 C-12.9083124 12.0505393 -9.71022227 9.05249911 -6.5 6.0625 C-5.86320312 5.46945068 -5.22640625 4.87640137 -4.5703125 4.26538086 C-3.04603741 2.84448524 -1.52289892 1.42237048 0 0 Z " fill="#F23419" transform="translate(440,359)"/>
<path d="M0 0 C0.99 0.33 1.98 0.66 3 1 C-0.43331399 3.84375502 -4.22238825 5.66291383 -8.25 7.5 C-9.25208496 7.96019531 -9.25208496 7.96019531 -10.27441406 8.4296875 C-23.1362392 14.28792027 -23.1362392 14.28792027 -27 13 C-23.30827405 9.46209597 -19.90609405 9.40884117 -15 9 C-15 8.34 -15 7.68 -15 7 C-14.15695312 6.80083984 -14.15695312 6.80083984 -13.296875 6.59765625 C-10.90633847 5.97562889 -8.58964225 5.22884959 -6.25 4.4375 C-5.05117188 4.03337891 -5.05117188 4.03337891 -3.828125 3.62109375 C-3.22484375 3.41613281 -2.6215625 3.21117187 -2 3 C-2 2.34 -2 1.68 -2 1 C-1.34 0.67 -0.68 0.34 0 0 Z " fill="#E2161D" transform="translate(607,764)"/>
<path d="M0 0 C0.61875 0.63228516 0.61875 0.63228516 1.25 1.27734375 C4.94011406 4.77800999 7.79053646 6.87918174 12.94921875 7.1796875 C17.97911157 6.73897308 22.60899863 4.37845908 27 2 C27 2.99 27 3.98 27 5 C22.07173423 9.74573741 15.30420183 9.39938525 8.82421875 9.3515625 C6 9 6 9 2.8125 6.75 C1.18557635 4.28156411 0.59344575 2.80537989 0 0 Z " fill="#ED181B" transform="translate(559,699)"/>
<path d="M0 0 C0.33 0 0.66 0 1 0 C1 3.3 1 6.6 1 10 C-0.32 10.33 -1.64 10.66 -3 11 C-3.268125 11.7425 -3.53625 12.485 -3.8125 13.25 C-5.5251996 17.21625172 -8.0157071 19.33614735 -12 21 C-15.11679054 21.11378759 -17.96655601 20.69473434 -21 20 C-21 19.67 -21 19.34 -21 19 C-19.93072266 18.92265625 -19.93072266 18.92265625 -18.83984375 18.84375 C-13.48503206 18.20953273 -9.74715002 17.49086873 -6 13.4375 C-2.85060875 9.32138913 -1.21630023 5.00420665 0 0 Z " fill="#DD191C" transform="translate(509,711)"/>
<path d="M0 0 C2.85715456 5.04397671 1.54621763 8.99720201 0.0625 14.4375 C-0.288125 15.613125 -0.63875 16.78875 -1 18 C-1.68882544 20.66158402 -2.34420984 23.3299972 -3 26 C-5 23 -5 23 -4.86328125 20.9765625 C-4.68152344 20.20054687 -4.49976563 19.42453125 -4.3125 18.625 C-4.11527344 17.75359375 -3.91804687 16.8821875 -3.71484375 15.984375 C-3.47894531 14.99953125 -3.24304688 14.0146875 -3 13 C-2.73316406 11.82953125 -2.46632813 10.6590625 -2.19140625 9.453125 C-1.47183781 6.29941834 -0.74033357 3.14888545 0 0 Z " fill="#E01B1B" transform="translate(524,651)"/>
<path d="M0 0 C1.171875 1.50390625 1.171875 1.50390625 2 4 C1.21258963 6.79413156 0.35633341 9.27599178 -0.75 11.9375 C-1.16765625 12.99227539 -1.16765625 12.99227539 -1.59375 14.06835938 C-2.38183791 16.05159003 -3.18858724 18.02622282 -4 20 C-4.66741382 21.66636761 -5.33445847 23.33288372 -6 25 C-6.99 24.67 -7.98 24.34 -9 24 C-8.67 23.34 -8.34 22.68 -8 22 C-7.67 21.01 -7.34 20.02 -7 19 C-6.34 19 -5.68 19 -5 19 C-4.67 16.36 -4.34 13.72 -4 11 C-3.34 11 -2.68 11 -2 11 C-1.93941406 10.37351562 -1.87882813 9.74703125 -1.81640625 9.1015625 C-1.73261719 8.28429687 -1.64882813 7.46703125 -1.5625 6.625 C-1.48128906 5.81289063 -1.40007813 5.00078125 -1.31640625 4.1640625 C-1 2 -1 2 0 0 Z " fill="#E3181B" transform="translate(703,650)"/>
<path d="M0 0 C1.31600093 3.94800278 0.07613159 6.39940306 -1.3125 10.125 C-1.53873047 10.77082031 -1.76496094 11.41664063 -1.99804688 12.08203125 C-3.73948991 16.86974496 -3.73948991 16.86974496 -6 18 C-6.35179197 20.3306218 -6.68330179 22.66435067 -7 25 C-8.0625 27.4375 -8.0625 27.4375 -9 29 C-9.33 29 -9.66 29 -10 29 C-9.48364505 23.25634802 -8.33120183 18.59525654 -6.0625 13.3125 C-5.79759766 12.67505859 -5.53269531 12.03761719 -5.25976562 11.38085938 C-4.51273107 9.58463981 -3.75661892 7.79220344 -3 6 C-2.62746094 5.04480469 -2.25492187 4.08960938 -1.87109375 3.10546875 C-1 1 -1 1 0 0 Z " fill="#F03A19" transform="translate(500,271)"/>
<path d="M0 0 C3.7306334 1.49225336 6.42839343 2.76291786 9.6875 4.9375 C10.45449219 5.44152344 11.22148438 5.94554687 12.01171875 6.46484375 C14 8 14 8 16 11 C11.9869045 9.62408154 9.2333422 7.72281449 6 5 C5.01 4.34 4.02 3.68 3 3 C2.67 8.94 2.34 14.88 2 21 C1.67 21 1.34 21 1 21 C0.67 14.07 0.34 7.14 0 0 Z " fill="#F52D18" transform="translate(621,432)"/>
<path d="M0 0 C0.33 0.66 0.66 1.32 1 2 C-0.375 4 -0.375 4 -2 6 C-2.66 6 -3.32 6 -4 6 C-4.66 7.65 -5.32 9.3 -6 11 C-6.66 11 -7.32 11 -8 11 C-8.26554687 11.58265625 -8.53109375 12.1653125 -8.8046875 12.765625 C-10.03302996 15.06174228 -11.40314939 16.80356018 -13.125 18.75 C-13.93324219 19.67039062 -13.93324219 19.67039062 -14.7578125 20.609375 C-15.16773438 21.06828125 -15.57765625 21.5271875 -16 22 C-16.66 21.34 -17.32 20.68 -18 20 C-16.80503906 18.71416016 -16.80503906 18.71416016 -15.5859375 17.40234375 C-10.28538723 11.68680081 -5.00532016 5.97857685 0 0 Z " fill="#F43819" transform="translate(470,328)"/>
<path d="M0 0 C0.99 0.33 1.98 0.66 3 1 C-0.3618226 5.25171681 -3.74828319 8.6381774 -8 12 C-8.66 11.67 -9.32 11.34 -10 11 C-9.36191406 10.37351562 -8.72382813 9.74703125 -8.06640625 9.1015625 C-7.24011719 8.28429687 -6.41382813 7.46703125 -5.5625 6.625 C-4.73878906 5.81289063 -3.91507812 5.00078125 -3.06640625 4.1640625 C-0.96565328 2.17651485 -0.96565328 2.17651485 0 0 Z M-11 12 C-10.67 12.99 -10.34 13.98 -10 15 C-10.61875 15.2475 -11.2375 15.495 -11.875 15.75 C-14.35068687 17.20628639 -14.95125002 18.37812506 -16 21 C-16.33 20.01 -16.66 19.02 -17 18 C-15.02 16.02 -13.04 14.04 -11 12 Z " fill="#F63318" transform="translate(396,401)"/>
<path d="M0 0 C0.33 0 0.66 0 1 0 C1.10957031 0.68707031 1.21914063 1.37414062 1.33203125 2.08203125 C1.49058594 2.98308594 1.64914062 3.88414062 1.8125 4.8125 C1.96332031 5.70582031 2.11414063 6.59914063 2.26953125 7.51953125 C3.08541353 10.2900406 3.66295461 11.33068187 6 13 C8.49443774 13.78798055 8.49443774 13.78798055 11.1875 14.1875 C12.08855469 14.34605469 12.98960937 14.50460937 13.91796875 14.66796875 C14.94857422 14.83232422 14.94857422 14.83232422 16 15 C16 15.33 16 15.66 16 16 C11.54210601 16.84546265 8.96281123 17.32093708 4.625 15.875 C1.50882445 13.64916032 0.80925444 12.7225704 0 9 C-0.14158812 5.9912524 -0.11800331 3.00908451 0 0 Z " fill="#F01A1C" transform="translate(479,716)"/>
<path d="M0 0 C0.33 0.66 0.66 1.32 1 2 C-0.16972688 4.60234692 -1.3933703 7.06063324 -2.75 9.5625 C-3.1109375 10.26052734 -3.471875 10.95855469 -3.84375 11.67773438 C-6.62667872 16.87555957 -6.62667872 16.87555957 -10 18 C-9.67 16.68 -9.34 15.36 -9 14 C-8.34 14 -7.68 14 -7 14 C-6.01 11.03 -5.02 8.06 -4 5 C-3.34 5 -2.68 5 -2 5 C-2 3.68 -2 2.36 -2 1 C-1.34 0.67 -0.68 0.34 0 0 Z " fill="#E6161C" transform="translate(693,678)"/>
<path d="M0 0 C0.66 0.33 1.32 0.66 2 1 C1.50628906 1.55429687 1.01257813 2.10859375 0.50390625 2.6796875 C-0.45708984 3.76636719 -0.45708984 3.76636719 -1.4375 4.875 C-2.07558594 5.59429687 -2.71367187 6.31359375 -3.37109375 7.0546875 C-5.05014465 8.90750491 -5.05014465 8.90750491 -6 11 C-6.66 11 -7.32 11 -8 11 C-8.0825 11.61875 -8.165 12.2375 -8.25 12.875 C-9 15 -9 15 -11.0625 16.25 C-11.701875 16.4975 -12.34125 16.745 -13 17 C-11.3867231 13.2999845 -9.06926004 10.46979051 -6.5 7.375 C-5.7059375 6.41335938 -4.911875 5.45171875 -4.09375 4.4609375 C-2 2 -2 2 0 0 Z " fill="#F63119" transform="translate(374,425)"/>
<path d="M0 0 C0.33 1.32 0.66 2.64 1 4 C-0.65 5.32 -2.3 6.64 -4 8 C-2.25 2.25 -2.25 2.25 0 0 Z M-5 8 C-5 11 -5 11 -5 11 Z M-7 11 C-6.67 12.32 -6.34 13.64 -6 15 C-7.98 15.99 -7.98 15.99 -10 17 C-8.125 12.125 -8.125 12.125 -7 11 Z " fill="#F23A19" transform="translate(486,304)"/>
<path d="M0 0 C2.31 0.66 4.62 1.32 7 2 C6.67 2.66 6.34 3.32 6 4 C5.34 4 4.68 4 4 4 C4.33 5.98 4.66 7.96 5 10 C4.01 10.495 4.01 10.495 3 11 C2.01 7.37 1.02 3.74 0 0 Z " fill="#E63C18" transform="translate(498,217)"/>
<path d="M0 0 C0.66 0 1.32 0 2 0 C2.45246094 0.4640625 2.90492188 0.928125 3.37109375 1.40625 C5.67182349 3.6573237 8.13932973 4.21118695 11.16015625 5.15625 C13 6 13 6 15 9 C14.01 9.495 14.01 9.495 13 10 C10.21484375 8.671875 10.21484375 8.671875 6.9375 6.75 C5.31134766 5.81414063 5.31134766 5.81414063 3.65234375 4.859375 C1 3 1 3 0 0 Z " fill="#E1191B" transform="translate(408,759)"/>
<path d="M0 0 C0.33 0.99 0.66 1.98 1 3 C-0.62212059 3.52973311 -2.24781584 4.04853107 -3.875 4.5625 C-4.77992188 4.85253906 -5.68484375 5.14257812 -6.6171875 5.44140625 C-9 6 -9 6 -11 5 C-11 4.34 -11 3.68 -11 3 C-10.2575 2.855625 -9.515 2.71125 -8.75 2.5625 C-6.07834232 2.05253619 -6.07834232 2.05253619 -3.8125 1.375 C-2 1 -2 1 0 2 C0 1.34 0 0.68 0 0 Z " fill="#DF171E" transform="translate(576,777)"/>
<path d="M0 0 C2.31 0 4.62 0 7 0 C7 0.66 7 1.32 7 2 C9.31 2.33 11.62 2.66 14 3 C14.33 3.99 14.66 4.98 15 6 C4.44191344 2.92482916 4.44191344 2.92482916 0 1 C0 0.67 0 0.34 0 0 Z " fill="#E3191C" transform="translate(432,773)"/>
<path d="M0 0 C0.66 0.66 1.32 1.32 2 2 C-1.56600568 5.25135812 -4.12135417 6.7831713 -9 7 C-9.66 6.34 -10.32 5.68 -11 5 C-10.45730469 4.80664062 -9.91460938 4.61328125 -9.35546875 4.4140625 C-8.64003906 4.15367187 -7.92460938 3.89328125 -7.1875 3.625 C-6.47980469 3.36976563 -5.77210938 3.11453125 -5.04296875 2.8515625 C-2.75226641 1.9734231 -2.75226641 1.9734231 0 0 Z " fill="#DD171C" transform="translate(585,701)"/>
<path d="M0 0 C0.99 0.33 1.98 0.66 3 1 C1.71451591 2.33929505 0.42141845 3.67128643 -0.875 5 C-1.59429688 5.7425 -2.31359375 6.485 -3.0546875 7.25 C-5 9 -5 9 -7 9 C-5.44499019 5.18315774 -2.96404505 2.80804268 0 0 Z " fill="#22161A" transform="translate(605,643)"/>
<path d="M0 0 C0.99 0 1.98 0 3 0 C2.67 3.63 2.34 7.26 2 11 C-1 7 -1 7 -0.6875 3.25 C-0.3471875 1.64125 -0.3471875 1.64125 0 0 Z " fill="#D11B1A" transform="translate(710,616)"/>
<path d="M0 0 C0.66 0.66 1.32 1.32 2 2 C1.34 2 0.68 2 0 2 C0.185625 2.556875 0.37125 3.11375 0.5625 3.6875 C1.07551165 6.399133 0.6640724 8.34371039 0 11 C-2 9 -2 9 -2.25 6.0625 C-2 3 -2 3 0 0 Z " fill="#DE1F1B" transform="translate(425,633)"/>
<path d="M0 0 C0.33 1.32 0.66 2.64 1 4 C0.34 4 -0.32 4 -1 4 C-1.66 5.65 -2.32 7.3 -3 9 C-3.99 8.67 -4.98 8.34 -6 8 C-2.25 1.125 -2.25 1.125 0 0 Z " fill="#E21A1B" transform="translate(639,642)"/>
<path d="M0 0 C0.556875 0.226875 1.11375 0.45375 1.6875 0.6875 C-3.9375 4.6875 -3.9375 4.6875 -7.3125 4.6875 C-7.3125 4.0275 -7.3125 3.3675 -7.3125 2.6875 C-3.15982824 -0.42700382 -3.15982824 -0.42700382 0 0 Z " fill="#E0161D" transform="translate(632.3125,749.3125)"/>
<path d="M0 0 C1.65 0.33 3.3 0.66 5 1 C1.81237635 3.12508244 -0.26512223 3.5020163 -4 4 C-4.33 3.01 -4.66 2.02 -5 1 C-2.525 1.495 -2.525 1.495 0 2 C0 1.34 0 0.68 0 0 Z " fill="#E1161C" transform="translate(553,783)"/>
<path d="M0 0 C2 2 2 2 2 6 C1.34 6 0.68 6 0 6 C0.33 7.32 0.66 8.64 1 10 C0.01 10 -0.98 10 -2 10 C-1.34 6.7 -0.68 3.4 0 0 Z " fill="#DE1B1B" transform="translate(514,691)"/>
<path d="M0 0 C-1.29299694 2.88437779 -2.65941363 4.87219421 -5 7 C-5.99 6.67 -6.98 6.34 -8 6 C-7.0479279 4.99403703 -6.08812654 3.99538437 -5.125 3 C-4.59132813 2.443125 -4.05765625 1.88625 -3.5078125 1.3125 C-2 0 -2 0 0 0 Z " fill="#261519" transform="translate(416,607)"/>
<path d="M0 0 C0 3 0 3 -2.5 5.6875 C-3.325 6.450625 -4.15 7.21375 -5 8 C-4.67 6.35 -4.34 4.7 -4 3 C-3.34 3 -2.68 3 -2 3 C-2 2.34 -2 1.68 -2 1 C-1.34 0.67 -0.68 0.34 0 0 Z " fill="#E9171D" transform="translate(678,703)"/>
<path d="M0 0 C3.41158256 1.13719419 4.11854601 2.04342944 6 5 C6 5.66 6 6.32 6 7 C3.42124782 5.96849913 2.21229635 5.35028898 0.75 2.9375 C0 1 0 1 0 0 Z " fill="#F03A1A" transform="translate(560,265)"/>
<path d="M0 0 C0 0.66 0 1.32 0 2 C-2.31 2 -4.62 2 -7 2 C-7 1.34 -7 0.68 -7 0 C-3.86650268 -1.04449911 -3.01031744 -0.93423645 0 0 Z " fill="#D9161D" transform="translate(530,788)"/>
<path d="M0 0 C0.66 0.33 1.32 0.66 2 1 C0.1875 4 0.1875 4 -2 7 C-2.99 7 -3.98 7 -5 7 C-3.35 4.69 -1.7 2.38 0 0 Z " fill="#F63019" transform="translate(345,463)"/>
</svg>
